<svg width="11" height="11" viewBox="0 0 11 11" fill="none" xmlns="http://www.w3.org/2000/svg">
<path fill-rule="evenodd" clip-rule="evenodd" d="M6.46103 0.351361C5.90599 -0.117121 5.09402 -0.11712 4.53898 0.351361L4.03349 0.778016C3.79758 0.977132 3.50565 1.09806 3.19803 1.12408L2.53891 1.17982C1.81517 1.24102 1.24102 1.81517 1.17982 2.53891L1.12408 3.19803C1.09806 3.50565 0.977132 3.79758 0.778016 4.0335L0.351361 4.53898C-0.117121 5.09402 -0.11712 5.90599 0.351361 6.46103L0.778016 6.96651C0.977132 7.20242 1.09806 7.49438 1.12408 7.80198L1.17982 8.46113C1.24102 9.18487 1.81517 9.75902 2.53891 9.82018L3.19803 9.87591C3.50565 9.90198 3.79758 10.0229 4.0335 10.222L4.53898 10.6487C5.09402 11.1171 5.90599 11.1171 6.46103 10.6487L6.96651 10.222C7.20242 10.0229 7.49438 9.90198 7.80198 9.87591L8.46113 9.82018C9.18487 9.75902 9.75902 9.18487 9.82018 8.46113L9.87591 7.80198C9.90198 7.49438 10.0229 7.20242 10.222 6.96651L10.6487 6.46103C11.1171 5.90599 11.1171 5.09402 10.6487 4.53898L10.222 4.03349C10.0229 3.79758 9.90198 3.50565 9.87591 3.19803L9.82018 2.53891C9.75902 1.81517 9.18487 1.24102 8.46113 1.17982L7.80198 1.12408C7.49438 1.09806 7.20242 0.977132 6.96651 0.778016L6.46103 0.351361ZM8.20933 4.48419C8.47119 4.22235 8.47119 3.79783 8.20933 3.53599C7.94754 3.27415 7.52298 3.27415 7.26112 3.53599L4.75535 6.04179L3.7395 5.02594C3.47767 4.7641 3.05314 4.7641 2.79131 5.02594C2.52946 5.28778 2.52946 5.7123 2.79131 5.97414L4.28126 7.46406C4.54309 7.72591 4.96762 7.72591 5.22945 7.46406L8.20933 4.48419Z" fill="#2D2423"/>
</svg>
